<svg class="svg-icon" style="width: 1em; height: 1em;vertical-align: middle;fill: currentColor;overflow: hidden;" viewBox="0 0 1024 1024" version="1.1" xmlns="http://www.w3.org/2000/svg"><path d="M896 187.04v321.28a22.24 22.24 0 0 1-13.6 18.24 25.6 25.6 0 0 1-24-1.76 21.44 21.44 0 0 1-10.4-20V187.04a16 16 0 0 0-16-14.72H128a16 16 0 0 0-16 14.72v649.92a16 16 0 0 0 16 14.72h396a22.72 22.72 0 0 1 21.92 24A23.36 23.36 0 0 1 520 896H128a61.6 61.6 0 0 1-64-59.04V187.04A61.6 61.6 0 0 1 128 128h704a61.6 61.6 0 0 1 64 59.04z" fill="" /><path d="M336 276a80 80 0 1 1-80 80 80 80 0 0 1 80-80z m0-48a128 128 0 1 0 128 128 128 128 0 0 0-128-128z" fill="" /><path d="M528 644a24 24 0 0 1-48 0 144 144 0 0 0-288 0 24 24 0 0 1-48 0 192 192 0 0 1 384 0zM568 416h192a21.28 21.28 0 0 1 24 24 21.28 21.28 0 0 1-24 24h-192a21.28 21.28 0 0 1-24-24 21.28 21.28 0 0 1 24-24zM568 272h192a21.28 21.28 0 0 1 24 24 21.28 21.28 0 0 1-24 24h-192a21.28 21.28 0 0 1-24-24 21.28 21.28 0 0 1 24-24z" fill="" /><path d="M955.36 868.64l-96-96a160 160 0 1 0-22.56 22.56l96 96a16 16 0 0 0 16 4.16 16 16 0 0 0 11.36-11.36 16 16 0 0 0-4.16-16zM608 672a128 128 0 1 1 128 128 128 128 0 0 1-128-128z" fill="#0070FF" /></svg>